<?xml version="1.0" encoding="utf-8"?>
<!DOCTYPE svg PUBLIC "-//W3C//DTD SVG 1.1//EN" "http://www.w3.org/Graphics/SVG/1.1/DTD/svg11.dtd">
<svg id="logoColor" data-name="logocolor" xmlns="http://www.w3.org/2000/svg" xmlns:xlink="http://www.w3.org/1999/xlink" viewBox="0 0 1367.3 178.5">
    <defs>
        <style>.cls-1{fill:url(#linear-gradient);}.cls-2{fill:#ef4136;}.cls-3{fill:#3081ff;}</style>
        <linearGradient id="linear-gradient" x1="559.13" y1="1437.68" x2="952.77" y2="1437.68" gradientUnits="userSpaceOnUse">
            <stop offset="0" stop-color="#ef4136"/>
            <stop offset="1" stop-color="#3081ff"/>
        </linearGradient>
    </defs>
    <title>logo-color</title>
    <path class="cls-1" d="M863.5,1348.4a76.6,76.6,0,0,0-9.4.4l-2.9.4c-39.8,5.9-72.4,39.4-104,71.8l-1.1,1.1c-28.7,29.6-58.3,60.3-89.2,65.4a49.5,49.5,0,0,1-8.5.6,51.4,51.4,0,1,1,0-102.8,24.5,24.5,0,0,1,6.4.7c12.3,1.9,25.5,8.5,40.3,20.3l20.7,16.8,25.1-25.6s-18.8-17.4-21-19.2c-19.6-15.7-37.9-25.1-56.3-28.7l-2.2-.4h-0.6c-4.3-.4-8.7-0.9-12.3-0.9a89.3,89.3,0,1,0,0,178.5,35.8,35.8,0,0,0,5.8-.3l1.2-.2c46.9-3.4,84.7-42.7,118-77.4,30.4-32,55.7-56.8,81.4-61.6h0.5a22.7,22.7,0,0,1,8.1-1.2,51.4,51.4,0,1,1,0,102.8,44.2,44.2,0,0,1-8.1-.6l-1.2-.3h-1l-3.2-.6c-10.7-2.7-20.9-8-32.5-16.4-2.8-2-19.6-17-19.6-17l-26.2,27s16,14.9,21.5,19.1c24,18.3,47.1,26.9,70.3,27,49.2-.4,89.3-40.5,89.3-89.3A89.4,89.4,0,0,0,863.5,1348.4Z" transform="translate(-396.9 -1348.4)"/><polygon class="cls-2" points="38.6 12.2 0 12.2 0 155 142.8 155 142.8 123.7 38.6 123.7 38.6 12.2"/><path class="cls-3" d="M1128.3,1374.3a47,47,0,0,0-17.9-10.1q-11-3.6-26.8-3.6H981v142.8h38.6v-45.1h64q15.8,0,26.8-3.6a47.5,47.5,0,0,0,17.9-10.1,38,38,0,0,0,10-15.5,63.6,63.6,0,0,0,0-39.3A38.1,38.1,0,0,0,1128.3,1374.3Zm-27.2,44.1a12,12,0,0,1-4.6,5.6,21.8,21.8,0,0,1-8.4,3,78,78,0,0,1-12.8.9h-55.7v-36.8h55.7a63.6,63.6,0,0,1,12.8,1.1,22.5,22.5,0,0,1,8.4,3.4,12.8,12.8,0,0,1,4.6,5.9,23.6,23.6,0,0,1,1.4,8.6A22.3,22.3,0,0,1,1101,1418.4Z" transform="translate(-396.9 -1348.4)"/><polygon class="cls-3" points="845.9 119.7 794 12.2 750.9 12.2 823.2 155 868 155 940.8 12.2 897.8 12.2 845.9 119.7"/><rect class="cls-3" x="955.8" y="12.2" width="38.6" height="142.78"/><path class="cls-3" d="M1582.5,1389.2a53.2,53.2,0,0,0-13.1-13.4,69.4,69.4,0,0,0-17.1-8.8,103.3,103.3,0,0,0-20.2-4.8,163.3,163.3,0,0,0-22.5-1.5h-90.4v142.8h90.6a162.9,162.9,0,0,0,22.5-1.5,102,102,0,0,0,20.2-4.8,67.4,67.4,0,0,0,17-8.8,54.7,54.7,0,0,0,13.1-13.4,62.2,62.2,0,0,0,8.5-18.5,89.7,89.7,0,0,0,3-24.4,88.7,88.7,0,0,0-3-24.2A63,63,0,0,0,1582.5,1389.2Zm-30,60.6a28.8,28.8,0,0,1-8.5,12.6,37.6,37.6,0,0,1-15.3,7.5,93.6,93.6,0,0,1-23.1,2.4h-47.9v-80.6h47.9a93.7,93.7,0,0,1,23.1,2.4,38.4,38.4,0,0,1,15.3,7.4,28.1,28.1,0,0,1,8.5,12.5A61.6,61.6,0,0,1,1552.5,1449.8Z" transform="translate(-396.9 -1348.4)"/><path class="cls-3" d="M1761.1,1447.3a36.3,36.3,0,0,0-8.5-11,58.1,58.1,0,0,0-12.6-8.4,117.9,117.9,0,0,0-15.2-6.3q-8.1-2.7-16.6-4.7l-16.6-3.7-15.2-3.3a126.4,126.4,0,0,1-12.6-3.4,30.4,30.4,0,0,1-8.5-4.2q-3.1-2.3-3.1-5.5a6.8,6.8,0,0,1,.4-2.1,5.5,5.5,0,0,1,1.6-2.3,14.4,14.4,0,0,1,3.6-2.2,29.8,29.8,0,0,1,6.3-1.9,87.9,87.9,0,0,1,9.9-1.4q5.9-.5,14.2-0.5a134.5,134.5,0,0,1,20.3,1.5,174.2,174.2,0,0,1,18.3,3.7q8.4,2.2,15.1,4.7t10.7,4.5v-33q-6.8-2.2-14.7-4.2t-16.5-3.5q-8.5-1.5-17.3-2.3t-17.1-.8q-7.6,0-16,.6a133.4,133.4,0,0,0-16.6,2.3,88.3,88.3,0,0,0-15.6,4.7,47.5,47.5,0,0,0-13.1,7.8,35.6,35.6,0,0,0-9,11.7,37,37,0,0,0-3.3,16.3,30.4,30.4,0,0,0,3.1,14.1,35.1,35.1,0,0,0,8.5,10.7,55.7,55.7,0,0,0,12.6,8,121.6,121.6,0,0,0,15.2,5.9q8.1,2.5,16.6,4.4l16.6,3.5,15.2,3.2a110.2,110.2,0,0,1,12.6,3.5,28.7,28.7,0,0,1,8.5,4.5,7.5,7.5,0,0,1,3.1,6,8.4,8.4,0,0,1-1.6,4.6q-1.6,2.4-5.9,4.4a48.8,48.8,0,0,1-12.1,3.3,124.9,124.9,0,0,1-20,1.3,163.5,163.5,0,0,1-39-4.5A130.7,130.7,0,0,1,1614,1461v34.1a196.8,196.8,0,0,0,31.8,8.7,207.2,207.2,0,0,0,39.2,3.5q8.1,0,17.1-.5a138.9,138.9,0,0,0,17.8-2.2,97.4,97.4,0,0,0,16.8-4.7,49,49,0,0,0,14.1-8.2,37.9,37.9,0,0,0,9.7-12.5q3.6-7.4,3.6-17.7A31.4,31.4,0,0,0,1761.1,1447.3Z" transform="translate(-396.9 -1348.4)"/>
</svg>
